<svg color="#B9B9B9" width="39" height="43" viewBox="0 0 39 43" fill="none" xmlns="http://www.w3.org/2000/svg">
<g filter="url(#filter0_d_1_5064)">
<path fill-rule="evenodd" clip-rule="evenodd" d="M11.7054 13.1396C10.917 12.3306 10.9233 11.0358 11.7244 10.2347C12.5319 9.42719 13.8411 9.42719 14.6486 10.2347L15.2141 10.8002C15.1932 10.2453 15.3946 9.68356 15.8182 9.25993C16.6257 8.45244 17.9349 8.45244 18.7424 9.25993L23.1287 13.6462L25.273 11.5018L26.8326 13.0614L27.6124 12.2816L31.1214 15.7906L31.9987 16.6678C32.5715 17.2407 32.9685 17.9655 33.1429 18.7566L33.1927 18.9828L33.9179 22.4564C34.0557 23.1169 33.8513 23.8023 33.3743 24.2794L26.2426 31.4111C25.7143 31.9393 24.9358 32.1291 24.2237 31.9032L19.8918 30.5292C18.417 29.6746 17.0599 28.6315 15.8546 27.4262L15.6919 27.2635L15.6918 27.2635L11.4319 23.0036L13.9662 20.4693L10.1648 16.6679C9.35731 15.8604 9.35731 14.5512 10.1648 13.7437C10.5885 13.32 11.1504 13.1186 11.7054 13.1396Z" fill="#363E55"/>
<path d="M11.7054 13.1396L11.6676 14.1389L14.1677 14.2332L12.4215 12.4416L11.7054 13.1396ZM15.2141 10.8002L14.507 11.5073L16.3091 13.3094L16.2134 10.7626L15.2141 10.8002ZM23.1287 13.6462L22.4216 14.3533L23.1287 15.0604L23.8358 14.3533L23.1287 13.6462ZM25.273 11.5018L25.9801 10.7947L25.273 10.0876L24.5659 10.7947L25.273 11.5018ZM26.8326 13.0614L26.1255 13.7685L26.8326 14.4756L27.5397 13.7685L26.8326 13.0614ZM27.6124 12.2816L28.3195 11.5745L27.6124 10.8673L26.9053 11.5745L27.6124 12.2816ZM33.1429 18.7566L34.1194 18.5415L34.1194 18.5415L33.1429 18.7566ZM33.1927 18.9828L34.1717 18.7784L34.1693 18.7676L33.1927 18.9828ZM33.9179 22.4564L32.939 22.6608L32.939 22.6608L33.9179 22.4564ZM24.2237 31.9032L24.526 30.95L24.526 30.95L24.2237 31.9032ZM19.8918 30.5292L19.3903 31.3945L19.4851 31.4493L19.5894 31.4824L19.8918 30.5292ZM15.8546 27.4262L16.5617 26.7191L15.8546 27.4262ZM15.6919 27.2635L16.399 26.5564L15.6919 25.8492L14.9848 26.5564L15.6919 27.2635ZM15.6918 27.2635L14.9847 27.9706L15.6918 28.6777L16.3989 27.9706L15.6918 27.2635ZM11.4319 23.0036L10.7248 22.2965L10.0177 23.0036L10.7248 23.7107L11.4319 23.0036ZM13.9662 20.4693L14.6733 21.1764L15.3804 20.4693L14.6733 19.7622L13.9662 20.4693ZM10.1648 16.6679L10.8719 15.9608L10.1648 16.6679ZM11.0173 9.52758C9.82875 10.7161 9.81937 12.6372 10.9892 13.8375L12.4215 12.4416C12.0146 12.0241 12.0179 11.3554 12.4315 10.9418L11.0173 9.52758ZM15.3557 9.52758C14.1577 8.32956 12.2153 8.32956 11.0173 9.52758L12.4315 10.9418C12.8485 10.5248 13.5245 10.5248 13.9415 10.9418L15.3557 9.52758ZM15.9212 10.0931L15.3557 9.52758L13.9415 10.9418L14.507 11.5073L15.9212 10.0931ZM15.1111 8.55282C14.4827 9.18131 14.1839 10.0164 14.2148 10.8378L16.2134 10.7626C16.2025 10.4741 16.3066 10.1858 16.5254 9.96704L15.1111 8.55282ZM19.4495 8.55282C18.2515 7.35481 16.3092 7.35481 15.1111 8.55282L16.5254 9.96704C16.9423 9.55007 17.6184 9.55007 18.0353 9.96704L19.4495 8.55282ZM23.8358 12.9391L19.4495 8.55282L18.0353 9.96704L22.4216 14.3533L23.8358 12.9391ZM24.5659 10.7947L22.4216 12.9391L23.8358 14.3533L25.9801 12.2089L24.5659 10.7947ZM27.5397 12.3543L25.9801 10.7947L24.5659 12.2089L26.1255 13.7685L27.5397 12.3543ZM27.5397 13.7685L28.3195 12.9887L26.9053 11.5745L26.1255 12.3543L27.5397 13.7685ZM26.9053 12.9887L30.4143 16.4977L31.8285 15.0835L28.3195 11.5745L26.9053 12.9887ZM30.4143 16.4977L31.2916 17.3749L32.7058 15.9607L31.8285 15.0835L30.4143 16.4977ZM31.2916 17.3749C31.7295 17.8129 32.033 18.367 32.1663 18.9718L34.1194 18.5415C33.9041 17.564 33.4135 16.6685 32.7058 15.9607L31.2916 17.3749ZM32.1663 18.9718L32.2161 19.198L34.1693 18.7676L34.1194 18.5415L32.1663 18.9718ZM32.2138 19.1872L32.939 22.6608L34.8968 22.2521L34.1716 18.7784L32.2138 19.1872ZM32.939 22.6608C33.0079 22.991 32.9057 23.3337 32.6672 23.5723L34.0814 24.9865C34.797 24.2709 35.1036 23.2427 34.8967 22.2521L32.939 22.6608ZM32.6672 23.5723L25.5355 30.704L26.9497 32.1182L34.0814 24.9865L32.6672 23.5723ZM25.5355 30.704C25.2713 30.9681 24.8821 31.063 24.526 30.95L23.9213 32.8564C24.9894 33.1952 26.1573 32.9105 26.9497 32.1182L25.5355 30.704ZM24.526 30.95L20.1941 29.576L19.5894 31.4824L23.9213 32.8564L24.526 30.95ZM20.3932 29.664C18.9935 28.8529 17.7056 27.8629 16.5617 26.7191L15.1475 28.1333C16.4142 29.4 17.8404 30.4962 19.3903 31.3945L20.3932 29.664ZM16.5617 26.7191L16.399 26.5564L14.9848 27.9706L15.1475 28.1333L16.5617 26.7191ZM16.3989 27.9706L16.399 27.9706L14.9848 26.5564L14.9847 26.5564L16.3989 27.9706ZM10.7248 23.7107L14.9847 27.9706L16.3989 26.5564L12.139 22.2965L10.7248 23.7107ZM13.2591 19.7622L10.7248 22.2965L12.139 23.7107L14.6733 21.1764L13.2591 19.7622ZM9.45769 17.375L13.2591 21.1764L14.6733 19.7622L10.8719 15.9608L9.45769 17.375ZM9.45769 13.0366C8.25968 14.2346 8.25967 16.177 9.45769 17.375L10.8719 15.9608C10.4549 15.5438 10.4549 14.8678 10.8719 14.4508L9.45769 13.0366ZM11.7431 12.1403C10.9216 12.1093 10.0863 12.408 9.45769 13.0366L10.8719 14.4508C11.0907 14.232 11.3791 14.128 11.6676 14.1389L11.7431 12.1403Z" fill="#B9B9B9"/>
<path d="M21.2767 11.7942C20.4692 10.9868 20.4692 9.67755 21.2767 8.87006C22.0842 8.06258 23.3934 8.06258 24.2008 8.87007L28.5871 13.2563L25.6629 16.1805L21.2767 11.7942Z" fill="#363E55"/>
<path d="M20.5696 12.5013C19.3715 11.3033 19.3715 9.36097 20.5696 8.16296C21.7676 6.96494 23.7099 6.96494 24.9079 8.16296L23.4937 9.57717C23.0768 9.16021 22.4007 9.16021 21.9838 9.57717C21.5668 9.99414 21.5668 10.6702 21.9838 11.0871L20.5696 12.5013ZM28.5871 13.2563L25.6629 16.1805L28.5871 13.2563ZM24.9558 16.8876L20.5696 12.5013C19.3715 11.3033 19.3715 9.36097 20.5696 8.16296L21.9838 9.57717C21.5668 9.99414 21.5668 10.6702 21.9838 11.0871L26.37 15.4734L24.9558 16.8876ZM20.5696 8.16296C21.7676 6.96494 23.7099 6.96494 24.9079 8.16296L29.2942 12.5492L27.88 13.9634L23.4937 9.57717C23.0768 9.16021 22.4007 9.16021 21.9838 9.57717L20.5696 8.16296Z" fill="#B9B9B9"/>
<path d="M12.5042 8.87005C11.6967 8.06256 11.6967 6.75336 12.5042 5.94587C13.3117 5.13838 14.6209 5.13838 15.4284 5.94587L22.7388 13.2563L19.8146 16.1805L12.5042 8.87005Z" fill="#363E55"/>
<path d="M11.7971 9.57715C10.5991 8.37914 10.5991 6.43678 11.7971 5.23876C12.9951 4.04075 14.9375 4.04075 16.1355 5.23876L14.7213 6.65298C14.3043 6.23601 13.6283 6.23601 13.2113 6.65298C12.7943 7.06994 12.7943 7.74598 13.2113 8.16294L11.7971 9.57715ZM22.7388 13.2563L19.8146 16.1805L22.7388 13.2563ZM19.1075 16.8876L11.7971 9.57715C10.5991 8.37914 10.5991 6.43678 11.7971 5.23876L13.2113 6.65298C12.7943 7.06994 12.7943 7.74598 13.2113 8.16294L20.5218 15.4734L19.1075 16.8876ZM11.7971 5.23876C12.9951 4.04075 14.9375 4.04075 16.1355 5.23876L23.4459 12.5492L22.0317 13.9634L14.7213 6.65298C14.3043 6.23601 13.6283 6.23601 13.2113 6.65298L11.7971 5.23876Z" fill="#B9B9B9"/>
<path d="M8.41033 9.84478C7.60284 9.03729 7.60284 7.72809 8.41033 6.9206C9.21782 6.11311 10.527 6.11311 11.3345 6.9206L20.2045 15.7906L17.2803 18.7148L8.41033 9.84478Z" fill="#363E55"/>
<path d="M7.70322 10.5519C6.50521 9.35387 6.50521 7.41151 7.70322 6.2135C8.90124 5.01548 10.8436 5.01548 12.0416 6.2135L10.6274 7.62771C10.2104 7.21074 9.5344 7.21074 9.11744 7.62771C8.70047 8.04467 8.70047 8.72071 9.11744 9.13767L7.70322 10.5519ZM20.2045 15.7906L17.2803 18.7148L20.2045 15.7906ZM16.5732 19.4219L7.70322 10.5519C6.50521 9.35387 6.50521 7.41151 7.70322 6.2135L9.11744 7.62771C8.70047 8.04467 8.70047 8.72071 9.11744 9.13767L17.9874 18.0077L16.5732 19.4219ZM7.70322 6.2135C8.90124 5.01548 10.8436 5.01548 12.0416 6.2135L20.9116 15.0835L19.4974 16.4977L10.6274 7.62771C10.2104 7.21074 9.5344 7.21074 9.11744 7.62771L7.70322 6.2135Z" fill="#B9B9B9"/>
<path d="M6.85076 13.3538C6.04327 12.5463 6.04327 11.2371 6.85076 10.4296C7.65825 9.62215 8.96745 9.62215 9.77494 10.4296L17.6702 18.3249L14.746 21.2491L6.85076 13.3538Z" fill="#363E55"/>
<path d="M6.14365 14.0609C4.94564 12.8629 4.94564 10.9205 6.14365 9.72253C7.34167 8.52451 9.28403 8.52451 10.482 9.72253L9.06783 11.1367C8.65087 10.7198 7.97483 10.7198 7.55787 11.1367C7.1409 11.5537 7.1409 12.2297 7.55787 12.6467L6.14365 14.0609ZM17.6702 18.3249L14.746 21.2491L17.6702 18.3249ZM14.0389 21.9562L6.14365 14.0609C4.94564 12.8629 4.94564 10.9205 6.14365 9.72253L7.55787 11.1367C7.1409 11.5537 7.1409 12.2297 7.55787 12.6467L15.4531 20.542L14.0389 21.9562ZM6.14365 9.72253C7.34167 8.52451 9.28403 8.52451 10.482 9.72253L18.3773 17.6178L16.9631 19.032L9.06783 11.1367C8.65087 10.7198 7.97483 10.7198 7.55787 11.1367L6.14365 9.72253Z" fill="#B9B9B9"/>
<path d="M7.83767 19.4093C7.13112 18.7028 7.13112 17.5572 7.83767 16.8507C8.54422 16.1441 9.68976 16.1441 10.3963 16.8507L14.7704 21.2248L12.2118 23.7834L7.83767 19.4093Z" fill="#363E55"/>
<path d="M7.13056 20.1164C6.03349 19.0194 6.03349 17.2407 7.13056 16.1436L7.13056 16.1436C8.22764 15.0465 10.0063 15.0465 11.1034 16.1436L9.6892 17.5578C9.37318 17.2418 8.8608 17.2418 8.54478 17.5578C8.22875 17.8738 8.22875 18.3862 8.54478 18.7022L7.13056 20.1164ZM14.7704 21.2248L12.2118 23.7834L14.7704 21.2248ZM11.5047 24.4905L7.13056 20.1164C6.03349 19.0194 6.03349 17.2407 7.13056 16.1436L8.54478 17.5578C8.22875 17.8738 8.22875 18.3862 8.54478 18.7022L12.9189 23.0763L11.5047 24.4905ZM7.13056 16.1436C8.22764 15.0465 10.0063 15.0465 11.1034 16.1436L15.4775 20.5177L14.0633 21.9319L9.6892 17.5578C9.37318 17.2418 8.8608 17.2418 8.54478 17.5578L7.13056 16.1436Z" fill="#B9B9B9"/>
<path fill-rule="evenodd" clip-rule="evenodd" d="M10.8257 17.0963C10.0373 16.2874 10.0437 14.9926 10.8448 14.1915C11.6523 13.384 12.9615 13.384 13.769 14.1915L14.3345 14.757C14.3136 14.2021 14.515 13.6403 14.9386 13.2167C15.7461 12.4092 17.0553 12.4092 17.8628 13.2167L22.249 17.603L24.3934 15.4586L25.9529 17.0182L26.7328 16.2383L30.2418 19.7474L31.119 20.6246C31.6919 21.1975 32.0889 21.9223 32.2632 22.7134L32.3131 22.9396L33.0382 26.4132C33.1761 27.0737 32.9717 27.7591 32.4946 28.2361L25.3629 35.3678C24.8347 35.8961 24.0561 36.0859 23.344 35.86L19.0121 34.486C17.5374 33.6314 16.1802 32.5882 14.9749 31.383L14.8122 31.2202L14.8122 31.2203L10.5523 26.9604L13.0866 24.4261L9.28516 20.6247C8.47767 19.8172 8.47767 18.508 9.28516 17.7005C9.70887 17.2768 10.2707 17.0754 10.8257 17.0963Z" fill="#363E55"/>
<path d="M10.8257 17.0963L10.788 18.0956L13.288 18.19L11.5419 16.3984L10.8257 17.0963ZM13.769 14.1915L13.0619 14.8986L13.769 14.1915ZM14.3345 14.757L13.6274 15.4641L15.4295 17.2662L15.3338 14.7194L14.3345 14.757ZM17.8628 13.2167L18.5699 12.5096L17.8628 13.2167ZM22.249 17.603L21.5419 18.3101L22.249 19.0172L22.9561 18.3101L22.249 17.603ZM24.3934 15.4586L25.1005 14.7515L24.3934 14.0444L23.6863 14.7515L24.3934 15.4586ZM25.9529 17.0182L25.2458 17.7253L25.9529 18.4324L26.66 17.7253L25.9529 17.0182ZM26.7328 16.2383L27.4399 15.5312L26.7328 14.8241L26.0257 15.5312L26.7328 16.2383ZM32.2632 22.7134L33.2398 22.4983L33.2398 22.4982L32.2632 22.7134ZM32.3131 22.9396L33.292 22.7352L33.2896 22.7244L32.3131 22.9396ZM33.0382 26.4132L32.0593 26.6176L32.0593 26.6176L33.0382 26.4132ZM23.344 35.86L23.6464 34.9068L23.6464 34.9068L23.344 35.86ZM19.0121 34.486L18.5107 35.3512L18.6054 35.4061L18.7098 35.4392L19.0121 34.486ZM14.9749 31.383L14.2678 32.0901L14.9749 31.383ZM14.8122 31.2202L15.5193 30.5131L14.8122 29.806L14.1051 30.5131L14.8122 31.2202ZM14.8122 31.2203L14.1051 31.9274L14.8122 32.6345L15.5193 31.9274L14.8122 31.2203ZM10.5523 26.9604L9.8452 26.2533L9.13809 26.9604L9.8452 27.6675L10.5523 26.9604ZM13.0866 24.4261L13.7937 25.1332L14.5008 24.4261L13.7937 23.719L13.0866 24.4261ZM9.28516 20.6247L8.57805 21.3318L9.28516 20.6247ZM10.1377 13.4844C8.94911 14.6729 8.93973 16.594 10.1096 17.7943L11.5419 16.3984C11.135 15.9809 11.1383 15.3122 11.5519 14.8986L10.1377 13.4844ZM14.4761 13.4844C13.2781 12.2863 11.3357 12.2863 10.1377 13.4844L11.5519 14.8986C11.9689 14.4816 12.6449 14.4816 13.0619 14.8986L14.4761 13.4844ZM15.0416 14.0499L14.4761 13.4844L13.0619 14.8986L13.6274 15.4641L15.0416 14.0499ZM14.2315 12.5096C13.603 13.1381 13.3043 13.9732 13.3352 14.7945L15.3338 14.7194C15.3229 14.4309 15.427 14.1426 15.6457 13.9238L14.2315 12.5096ZM18.5699 12.5096C17.3719 11.3116 15.4295 11.3116 14.2315 12.5096L15.6457 13.9238C16.0627 13.5069 16.7387 13.5069 17.1557 13.9238L18.5699 12.5096ZM22.9561 16.8959L18.5699 12.5096L17.1557 13.9238L21.5419 18.3101L22.9561 16.8959ZM23.6863 14.7515L21.5419 16.8959L22.9561 18.3101L25.1005 16.1657L23.6863 14.7515ZM26.66 16.3111L25.1005 14.7515L23.6863 16.1657L25.2458 17.7253L26.66 16.3111ZM26.66 17.7253L27.4399 16.9455L26.0257 15.5312L25.2458 16.3111L26.66 17.7253ZM26.0257 16.9455L29.5347 20.4545L30.9489 19.0403L27.4399 15.5312L26.0257 16.9455ZM29.5347 20.4545L30.4119 21.3317L31.8261 19.9175L30.9489 19.0403L29.5347 20.4545ZM30.4119 21.3317C30.8499 21.7697 31.1534 22.3238 31.2867 22.9286L33.2398 22.4982C33.0244 21.5208 32.5339 20.6253 31.8261 19.9175L30.4119 21.3317ZM31.2867 22.9286L31.3365 23.1548L33.2896 22.7244L33.2398 22.4983L31.2867 22.9286ZM31.3342 23.1439L32.0593 26.6176L34.0171 26.2089L33.292 22.7352L31.3342 23.1439ZM32.0593 26.6176C32.1283 26.9478 32.0261 27.2905 31.7875 27.529L33.2017 28.9433C33.9173 28.2277 34.2239 27.1995 34.0171 26.2089L32.0593 26.6176ZM31.7875 27.529L24.6558 34.6607L26.07 36.075L33.2017 28.9433L31.7875 27.529ZM24.6558 34.6607C24.3917 34.9249 24.0024 35.0198 23.6464 34.9068L23.0417 36.8132C24.1098 37.152 25.2777 36.8673 26.07 36.075L24.6558 34.6607ZM23.6464 34.9068L19.3145 33.5328L18.7098 35.4392L23.0417 36.8132L23.6464 34.9068ZM19.5135 33.6208C18.1139 32.8097 16.8259 31.8197 15.6821 30.6759L14.2678 32.0901C15.5345 33.3568 16.9608 34.453 18.5107 35.3512L19.5135 33.6208ZM15.6821 30.6759L15.5193 30.5131L14.1051 31.9274L14.2678 32.0901L15.6821 30.6759ZM15.5193 31.9274L15.5193 31.9274L14.1051 30.5131L14.1051 30.5132L15.5193 31.9274ZM9.8452 27.6675L14.1051 31.9274L15.5193 30.5132L11.2594 26.2533L9.8452 27.6675ZM12.3795 23.719L9.8452 26.2533L11.2594 27.6675L13.7937 25.1332L12.3795 23.719ZM8.57805 21.3318L12.3795 25.1332L13.7937 23.719L9.99226 19.9176L8.57805 21.3318ZM8.57805 16.9934C7.38004 18.1914 7.38004 20.1338 8.57805 21.3318L9.99226 19.9176C9.5753 19.5006 9.5753 18.8246 9.99226 18.4076L8.57805 16.9934ZM10.8635 16.0971C10.042 16.066 9.20666 16.3648 8.57805 16.9934L9.99226 18.4076C10.2111 18.1888 10.4994 18.0847 10.788 18.0956L10.8635 16.0971Z" fill="white"/>
<path d="M20.3971 15.751C19.5897 14.9435 19.5897 13.6343 20.3971 12.8269C21.2046 12.0194 22.5138 12.0194 23.3213 12.8269L27.7076 17.2131L24.7834 20.1373L20.3971 15.751Z" fill="#363E55"/>
<path d="M19.69 16.4581C18.492 15.2601 18.492 13.3178 19.69 12.1197C20.8881 10.9217 22.8304 10.9217 24.0284 12.1197L22.6142 13.534C22.1973 13.117 21.5212 13.117 21.1043 13.534C20.6873 13.9509 20.6873 14.627 21.1043 15.0439L19.69 16.4581ZM27.7076 17.2131L24.7834 20.1373L27.7076 17.2131ZM24.0763 20.8444L19.69 16.4581C18.492 15.2601 18.492 13.3178 19.69 12.1197L21.1043 13.534C20.6873 13.9509 20.6873 14.627 21.1043 15.0439L25.4905 19.4302L24.0763 20.8444ZM19.69 12.1197C20.8881 10.9217 22.8304 10.9217 24.0284 12.1197L28.4147 16.506L27.0005 17.9202L22.6142 13.534C22.1973 13.117 21.5212 13.117 21.1043 13.534L19.69 12.1197Z" fill="white"/>
<path d="M11.6246 12.8268C10.8171 12.0193 10.8171 10.7101 11.6246 9.90266C12.4321 9.09517 13.7413 9.09517 14.5487 9.90266L21.8592 17.2131L18.935 20.1373L11.6246 12.8268Z" fill="#363E55"/>
<path d="M10.9175 13.5339C9.71944 12.3359 9.71944 10.3936 10.9175 9.19555C12.1155 7.99754 14.0578 7.99754 15.2558 9.19555L13.8416 10.6098C13.4247 10.1928 12.7486 10.1928 12.3317 10.6098C11.9147 11.0267 11.9147 11.7028 12.3317 12.1197L10.9175 13.5339ZM21.8592 17.2131L18.935 20.1373L21.8592 17.2131ZM18.2279 20.8444L10.9175 13.5339C9.71944 12.3359 9.71944 10.3936 10.9175 9.19555L12.3317 10.6098C11.9147 11.0267 11.9147 11.7028 12.3317 12.1197L19.6421 19.4302L18.2279 20.8444ZM10.9175 9.19555C12.1155 7.99754 14.0578 7.99754 15.2558 9.19555L22.5663 16.506L21.1521 17.9202L13.8416 10.6098C13.4247 10.1928 12.7486 10.1928 12.3317 10.6098L10.9175 9.19555Z" fill="white"/>
<path d="M7.53069 13.8016C6.7232 12.9941 6.7232 11.6849 7.53069 10.8774C8.33818 10.0699 9.64738 10.0699 10.4549 10.8774L19.3249 19.7474L16.4007 22.6716L7.53069 13.8016Z" fill="#363E55"/>
<path d="M6.82359 14.5087C5.62557 13.3107 5.62557 11.3683 6.82359 10.1703C8.0216 8.97227 9.96396 8.97227 11.162 10.1703L9.74776 11.5845C9.3308 11.1675 8.65476 11.1675 8.2378 11.5845C7.82083 12.0015 7.82083 12.6775 8.2378 13.0945L6.82359 14.5087ZM19.3249 19.7474L16.4007 22.6716L19.3249 19.7474ZM15.6936 23.3787L6.82359 14.5087C5.62557 13.3107 5.62557 11.3683 6.82359 10.1703L8.2378 11.5845C7.82083 12.0015 7.82083 12.6775 8.2378 13.0945L17.1078 21.9645L15.6936 23.3787ZM6.82359 10.1703C8.0216 8.97227 9.96396 8.97227 11.162 10.1703L20.032 19.0403L18.6178 20.4545L9.74776 11.5845C9.3308 11.1675 8.65476 11.1675 8.2378 11.5845L6.82359 10.1703Z" fill="white"/>
<path d="M5.97112 17.3106C5.16363 16.5031 5.16363 15.1939 5.97112 14.3864C6.77861 13.5789 8.08781 13.5789 8.8953 14.3864L16.7906 22.2817L13.8664 25.2059L5.97112 17.3106Z" fill="#363E55"/>
<path d="M5.26402 18.0177C4.066 16.8197 4.066 14.8773 5.26402 13.6793C6.46203 12.4813 8.40439 12.4813 9.60241 13.6793L8.18819 15.0935C7.77123 14.6766 7.09519 14.6766 6.67823 15.0935C6.26126 15.5105 6.26126 16.1865 6.67823 16.6035L5.26402 18.0177ZM16.7906 22.2817L13.8664 25.2059L16.7906 22.2817ZM13.1593 25.913L5.26402 18.0177C4.066 16.8197 4.066 14.8773 5.26402 13.6793L6.67823 15.0935C6.26126 15.5105 6.26126 16.1865 6.67823 16.6035L14.5735 24.4988L13.1593 25.913ZM5.26402 13.6793C6.46203 12.4813 8.40439 12.4813 9.60241 13.6793L17.4977 21.5746L16.0835 22.9888L8.18819 15.0935C7.77123 14.6766 7.09519 14.6766 6.67823 15.0935L5.26402 13.6793Z" fill="white"/>
<path d="M6.95803 23.3661C6.25148 22.6596 6.25148 21.514 6.95803 20.8075C7.66458 20.1009 8.81012 20.1009 9.51667 20.8075L13.8908 25.1816L11.3321 27.7402L6.95803 23.3661Z" fill="#363E55"/>
<path d="M6.25092 24.0732C5.15385 22.9761 5.15385 21.1974 6.25092 20.1004L6.25092 20.1004C7.348 19.0033 9.12671 19.0033 10.2238 20.1004L8.80957 21.5146C8.49354 21.1986 7.98116 21.1986 7.66514 21.5146C7.34911 21.8306 7.34911 22.343 7.66514 22.659L6.25092 24.0732ZM13.8908 25.1816L11.3321 27.7402L13.8908 25.1816ZM10.625 28.4473L6.25092 24.0732C5.15385 22.9761 5.15385 21.1974 6.25092 20.1004L7.66514 21.5146C7.34911 21.8306 7.34911 22.343 7.66514 22.659L12.0392 27.0331L10.625 28.4473ZM6.25092 20.1004C7.348 19.0033 9.12671 19.0033 10.2238 20.1004L14.5979 24.4745L13.1837 25.8887L8.80957 21.5146C8.49354 21.1986 7.98116 21.1986 7.66514 21.5146L6.25092 20.1004Z" fill="white"/>
</g>
<defs>
<filter id="filter0_d_1_5064" x="0.365479" y="2.34021" width="38.5946" height="40.6135" filterUnits="userSpaceOnUse" color-interpolation-filters="sRGB">
<feFlood flood-opacity="0" result="BackgroundImageFix"/>
<feColorMatrix in="SourceAlpha" type="matrix" values="0 0 0 0 0 0 0 0 0 0 0 0 0 0 0 0 0 0 127 0" result="hardAlpha"/>
<feOffset dy="2"/>
<feGaussianBlur stdDeviation="2"/>
<feComposite in2="hardAlpha" operator="out"/>
<feColorMatrix type="matrix" values="0 0 0 0 0.223614 0 0 0 0 0.224846 0 0 0 0 0.237028 0 0 0 1 0"/>
<feBlend mode="normal" in2="BackgroundImageFix" result="effect1_dropShadow_1_5064"/>
<feBlend mode="normal" in="SourceGraphic" in2="effect1_dropShadow_1_5064" result="shape"/>
</filter>
</defs>
</svg>
