<svg width="25" height="24" viewBox="0 0 25 24" fill="none" xmlns="http://www.w3.org/2000/svg" color="#B9B9B9">
<path fill-rule="evenodd" clip-rule="evenodd" d="M2.5 2C1.94772 2 1.5 2.44772 1.5 3V18C1.5 18.5523 1.94772 19 2.5 19H9.5C10.0304 19 10.5391 19.2107 10.9142 19.5858C11.2893 19.9609 11.5 20.4696 11.5 21C11.5 21.5523 11.9477 22 12.5 22C13.0523 22 13.5 21.5523 13.5 21C13.5 20.4696 13.7107 19.9609 14.0858 19.5858C14.4609 19.2107 14.9696 19 15.5 19H22.5C23.0523 19 23.5 18.5523 23.5 18V3C23.5 2.44772 23.0523 2 22.5 2H16.5C15.1739 2 13.9021 2.52678 12.9645 3.46447C12.7962 3.63275 12.6411 3.81178 12.5 3.99997C12.3589 3.81178 12.2038 3.63275 12.0355 3.46447C11.0979 2.52678 9.82608 2 8.5 2H2.5ZM13.5 17.5359C14.1029 17.1878 14.7918 17 15.5 17H21.5V4H16.5C15.7044 4 14.9413 4.31607 14.3787 4.87868C13.8161 5.44129 13.5 6.20435 13.5 7V17.5359ZM11.5 17.5359V7C11.5 6.20435 11.1839 5.44129 10.6213 4.87868C10.0587 4.31607 9.29565 4 8.5 4H3.5V17H9.5C10.2082 17 10.8971 17.1878 11.5 17.5359Z" fill="currentColor"/>
</svg>
