<svg width="83" height="18" viewBox="0 0 83 18" fill="none" xmlns="http://www.w3.org/2000/svg">
<path d="M76.9712 18C76.4058 18 75.8334 17.9364 75.2539 17.8092C74.6885 17.6961 74.1655 17.5124 73.685 17.258C73.2044 17.0177 72.8016 16.6997 72.4765 16.3039L73.4094 14.4806C73.7769 14.9611 74.2716 15.3216 74.8935 15.5618C75.5154 15.8163 76.1726 15.9435 76.8652 15.9435C77.6567 15.9435 78.3069 15.7739 78.8157 15.4346C79.3387 15.1095 79.7345 14.6007 80.003 13.9081C80.2716 13.2156 80.4129 12.3463 80.427 11.3004L80.6178 9.18022H80.215C80.0595 10.1837 79.8122 10.9894 79.473 11.5972C79.1479 12.205 78.7451 12.6431 78.2645 12.9117C77.7839 13.1802 77.2186 13.3145 76.5684 13.3145C75.7627 13.3145 75.0843 13.1166 74.533 12.7209C73.9959 12.311 73.586 11.7103 73.3034 10.9187C73.0348 10.1131 72.9005 9.13075 72.9005 7.97174V3.24382H75.1903V7.4629C75.1903 8.80566 75.367 9.78799 75.7203 10.4099C76.0878 11.0318 76.632 11.3428 77.3528 11.3428C77.7486 11.3428 78.1019 11.2438 78.4129 11.0459C78.7239 10.8481 78.9924 10.5583 79.2186 10.1767C79.4588 9.78092 79.6426 9.29329 79.7698 8.71378C79.9111 8.13428 79.9959 7.4629 80.0242 6.69965V3.24382H82.3352V11.4064C82.3352 12.2827 82.2645 13.0742 82.1232 13.7809C81.9818 14.4735 81.7627 15.0813 81.4659 15.6042C81.1832 16.1413 80.8299 16.5866 80.4058 16.9399C79.9818 17.3074 79.48 17.576 78.9005 17.7456C78.3352 17.9152 77.6921 18 76.9712 18Z" fill="white" fill-opacity="0.8"/>
<path d="M64.006 14.5442C63.3982 14.5442 62.8541 14.4311 62.3735 14.2049C61.8929 13.9647 61.5113 13.6113 61.2286 13.1449C60.9601 12.6784 60.8258 12.0989 60.8258 11.4064C60.8258 10.8551 60.9247 10.3816 61.1226 9.98587C61.3346 9.57597 61.6456 9.23675 62.0555 8.9682C62.4795 8.68551 63.0166 8.45937 63.6668 8.28976C64.317 8.10601 65.0873 7.95053 65.9777 7.82332C66.4724 7.75265 66.8753 7.68198 67.1862 7.61131C67.5113 7.54064 67.7445 7.42756 67.8859 7.27209C68.0413 7.11661 68.1191 6.88339 68.1191 6.57244C68.1191 6.09188 67.9495 5.68198 67.6103 5.34276C67.2852 4.9894 66.7551 4.81272 66.0202 4.81272C65.6103 4.81272 65.2004 4.8834 64.7905 5.02474C64.3947 5.16608 64.0484 5.3993 63.7516 5.72438C63.4689 6.03534 63.2781 6.45937 63.1792 6.99647L61.1014 6.33923C61.2286 5.80212 61.4336 5.32862 61.7163 4.91873C61.999 4.4947 62.3523 4.14135 62.7763 3.85866C63.2004 3.56184 63.688 3.34276 64.2392 3.20142C64.8046 3.04594 65.4194 2.9682 66.0838 2.9682C67.059 2.9682 67.8647 3.13074 68.5007 3.45583C69.1368 3.78092 69.6103 4.28269 69.9212 4.96113C70.2463 5.62544 70.4088 6.48057 70.4088 7.5265V9.77385C70.4088 10.2403 70.4159 10.735 70.43 11.258C70.4583 11.7668 70.4866 12.2827 70.5149 12.8057C70.5573 13.3145 70.6067 13.8021 70.6633 14.2686H68.5643C68.5219 13.8445 68.4795 13.4064 68.4371 12.9541C68.4088 12.5018 68.3806 12.0424 68.3523 11.576H68.0343C67.8364 12.1131 67.5537 12.6078 67.1862 13.0601C66.8329 13.5124 66.3876 13.8728 65.8505 14.1413C65.3276 14.4099 64.7127 14.5442 64.006 14.5442ZM64.8117 12.7633C65.1085 12.7633 65.4053 12.7138 65.7021 12.6148C66.0131 12.5159 66.317 12.3675 66.6138 12.1696C66.9247 11.9576 67.2074 11.689 67.4619 11.364C67.7304 11.0389 67.9636 10.6502 68.1615 10.1979L68.1403 8.20495L68.6915 8.31096C68.4512 8.52297 68.1474 8.68552 67.7799 8.79859C67.4265 8.91166 67.0378 9.00354 66.6138 9.07421C66.1898 9.13074 65.7657 9.20142 65.3417 9.28622C64.9318 9.35689 64.5502 9.4629 64.1968 9.60424C63.8576 9.73145 63.582 9.9152 63.37 10.1555C63.1721 10.3958 63.0732 10.7279 63.0732 11.1519C63.0732 11.6749 63.2357 12.0777 63.5608 12.3604C63.8859 12.629 64.3028 12.7633 64.8117 12.7633Z" fill="white" fill-opacity="0.8"/>
<path d="M53.3349 14.2685V8.52296V3.24381H55.3278L55.2218 7.06007H55.5822C55.7095 6.19788 55.9073 5.46289 56.1759 4.85512C56.4444 4.24735 56.8119 3.78798 57.2784 3.47703C57.7448 3.15194 58.3243 2.9894 59.0169 2.9894C59.1582 2.9894 59.3137 2.99646 59.4833 3.0106C59.6529 3.02473 59.8437 3.06713 60.0557 3.1378L59.9497 5.55477C59.7377 5.46996 59.5186 5.41342 59.2925 5.38515C59.0663 5.34275 58.8614 5.32155 58.6777 5.32155C58.1123 5.32155 57.6317 5.48409 57.236 5.80918C56.8402 6.12014 56.508 6.5583 56.2395 7.12367C55.9851 7.67491 55.7872 8.31802 55.6459 9.053V14.2685H53.3349Z" fill="white" fill-opacity="0.8"/>
<path d="M42.0351 10.0919V8.20495H45.4061C46.6358 8.20495 47.5545 7.96467 48.1623 7.4841C48.7842 7.00354 49.0952 6.21202 49.0952 5.10954C49.0952 4.12014 48.8054 3.37809 48.2259 2.88339C47.6605 2.38869 46.7842 2.14134 45.5969 2.14134H42.0351V0.27562H45.6393C46.5581 0.27562 47.3708 0.381626 48.0775 0.59364C48.7983 0.805654 49.4061 1.11661 49.9008 1.5265C50.4097 1.9364 50.7913 2.4523 51.0457 3.07421C51.3142 3.68198 51.4485 4.38869 51.4485 5.19435C51.4485 6.25442 51.2082 7.15195 50.7277 7.88693C50.2471 8.60778 49.5333 9.15901 48.5863 9.54064C47.6535 9.90813 46.4945 10.0919 45.1093 10.0919H42.0351ZM40.6358 14.2686V0.27562H42.9468V14.2686H40.6358Z" fill="white" fill-opacity="0.8"/>
<path d="M27.4014 14.2685V8.52296V3.24381H29.3943L29.2883 7.06007H29.6487C29.7759 6.19788 29.9738 5.46289 30.2424 4.85512C30.5109 4.24735 30.8784 3.78798 31.3448 3.47703C31.8113 3.15194 32.3908 2.9894 33.0833 2.9894C33.2247 2.9894 33.3802 2.99646 33.5498 3.0106C33.7194 3.02473 33.9102 3.06713 34.1222 3.1378L34.0162 5.55477C33.8042 5.46996 33.5851 5.41342 33.359 5.38515C33.1328 5.34275 32.9279 5.32155 32.7441 5.32155C32.1788 5.32155 31.6982 5.48409 31.3024 5.80918C30.9067 6.12014 30.5745 6.5583 30.306 7.12367C30.0515 7.67491 29.8537 8.31802 29.7123 9.053V14.2685H27.4014Z" fill="white" fill-opacity="0.8"/>
<path d="M18.7378 14.5442C17.494 14.5442 16.554 14.1201 15.918 13.2721C15.2819 12.4099 14.9639 11.1166 14.9639 9.39223V3.24382H17.2749V9.13781C17.2749 10.2968 17.4516 11.159 17.8049 11.7244C18.1583 12.2898 18.7166 12.5724 19.4798 12.5724C19.9039 12.5724 20.2784 12.4664 20.6035 12.2544C20.9286 12.0424 21.2113 11.7456 21.4516 11.364C21.706 10.9823 21.9039 10.5371 22.0452 10.0283C22.2007 9.5053 22.3067 8.93287 22.3632 8.31096V3.24382H24.653V9.68905V14.2686H22.7024L22.8085 10.7703H22.448C22.2643 11.6466 22.0028 12.3675 21.6636 12.9329C21.3385 13.4841 20.9286 13.894 20.4339 14.1625C19.9533 14.417 19.388 14.5442 18.7378 14.5442Z" fill="white" fill-opacity="0.8"/>
<path d="M6.33922 14.5442C5.32156 14.5442 4.41696 14.3816 3.62544 14.0565C2.84806 13.7173 2.18375 13.2367 1.63251 12.6148C1.09541 11.9929 0.685512 11.2367 0.402827 10.3463C0.134276 9.45583 0 8.4523 0 7.33569C0 5.69611 0.275619 4.33922 0.826855 3.26502C1.37809 2.17668 2.13428 1.36396 3.09541 0.826856C4.05654 0.275619 5.15194 0 6.38163 0C7.34276 0 8.21201 0.162544 8.9894 0.487632C9.76678 0.798587 10.4311 1.27209 10.9823 1.90813C11.5477 2.53004 11.9788 3.30035 12.2756 4.21908C12.5724 5.12367 12.7208 6.15548 12.7208 7.31449C12.7208 8.44523 12.5795 9.4629 12.2968 10.3675C12.0141 11.2579 11.5972 12.0141 11.0459 12.636C10.4947 13.2579 9.82332 13.7314 9.0318 14.0565C8.25442 14.3816 7.35689 14.5442 6.33922 14.5442ZM6.38163 12.6148C7.22968 12.6148 7.95053 12.4099 8.54417 12C9.13781 11.5901 9.59011 11.0035 9.90106 10.2403C10.212 9.4629 10.3675 8.5159 10.3675 7.39929C10.3675 6.25442 10.2049 5.27915 9.87986 4.4735C9.56891 3.66784 9.10954 3.053 8.50177 2.62898C7.90813 2.19081 7.18728 1.97173 6.33922 1.97173C5.51943 1.97173 4.80565 2.18375 4.19788 2.60777C3.60424 3.01767 3.14488 3.61837 2.81979 4.40989C2.50883 5.20141 2.35336 6.17668 2.35336 7.33569C2.35336 8.18374 2.44523 8.93993 2.62898 9.60424C2.81272 10.2544 3.07421 10.8057 3.41343 11.2579C3.75265 11.6961 4.16961 12.0353 4.66431 12.2756C5.17315 12.5018 5.74558 12.6148 6.38163 12.6148Z" fill="white" fill-opacity="0.8"/>
</svg>
