<svg width="24" height="24" viewBox="0 0 24 24" fill="none" xmlns="http://www.w3.org/2000/svg">
<path d="M12.063 2.06498C11.9366 2.00831 11.7958 1.99221 11.6598 2.0189C11.5239 2.04558 11.3996 2.11374 11.304 2.21398C11.2108 2.31004 11.1433 2.42793 11.1075 2.55686C11.0716 2.68579 11.0687 2.82164 11.099 2.95198C11.198 3.39198 11.25 3.85198 11.25 4.32199C11.25 5.39798 10.979 6.15198 10.512 6.77698C10.038 7.41198 9.35201 7.92898 8.48501 8.51198C8.47152 8.52126 8.45881 8.53163 8.44701 8.54298L8.34201 8.64898C7.24565 9.35631 6.37778 10.3662 5.84342 11.5565C5.30906 12.7468 5.13112 14.0664 5.33113 15.3557C5.53114 16.645 6.10052 17.8488 6.97038 18.8212C7.84024 19.7937 8.97329 20.4932 10.2324 20.8351C11.4915 21.177 12.8228 21.1467 14.065 20.7478C15.3073 20.3489 16.4073 19.5985 17.232 18.5875C18.0567 17.5764 18.5707 16.348 18.7118 15.051C18.8529 13.7539 18.615 12.4437 18.027 11.279C18.0085 11.2422 17.9811 11.2107 17.9474 11.187C17.9138 11.1634 17.8747 11.1484 17.8339 11.1435C17.793 11.1385 17.7516 11.1437 17.7132 11.1587C17.6749 11.1736 17.6408 11.1977 17.614 11.229L17.406 11.47C16.528 12.496 15.819 13.325 14.366 13.695C14.304 13.71 14.266 13.699 14.239 13.682C14.1959 13.6518 14.1639 13.6082 14.148 13.558C14.1218 13.4887 14.1149 13.4137 14.1279 13.3408C14.1409 13.2679 14.1734 13.1999 14.222 13.144C14.999 12.301 15.551 11.157 15.748 9.52998C16.118 6.48198 14.733 3.23599 12.063 2.06498Z" fill="#FF7D71"/>
</svg>
