<svg width="18" height="18" viewBox="0 0 18 18" fill="none" xmlns="http://www.w3.org/2000/svg">
<path d="M2.37079 9.18655C2.12619 9.14079 2.11141 8.79593 2.3512 8.72942L2.47535 8.69498C5.45961 7.86716 7.7914 5.53537 8.61922 2.55111L8.65366 2.42695C8.72018 2.18716 9.06504 2.20194 9.11079 2.44654C9.67138 5.4432 11.9207 7.8418 14.8752 8.59347L15.4202 8.73211C15.6621 8.79367 15.6483 9.14192 15.4023 9.18414C12.1826 9.73655 9.66079 12.2584 9.10839 15.478C9.06617 15.7241 8.71791 15.7379 8.65635 15.4959L8.51772 14.951C7.76604 11.9965 5.36744 9.74713 2.37079 9.18655Z" fill="#F7EE91"/>
</svg>
