<svg width="22" height="24" viewBox="0 0 22 24" fill="none" xmlns="http://www.w3.org/2000/svg">
<path d="M6.40497 15.1186C6.16036 15.0729 6.14559 14.728 6.38538 14.6615L6.50953 14.6271C9.49379 13.7993 11.8256 11.4675 12.6534 8.4832L12.6878 8.35905C12.7544 8.11926 13.0992 8.13404 13.145 8.37864V8.37864C13.7056 11.3753 15.9549 13.7739 18.9094 14.5256L19.4544 14.6642C19.6963 14.7258 19.6825 15.074 19.4364 15.1162V15.1162C16.2168 15.6686 13.695 18.1905 13.1426 21.4101V21.4101C13.1003 21.6562 12.7521 21.67 12.6905 21.428L12.5519 20.8831C11.8002 17.9286 9.40162 15.6792 6.40497 15.1186V15.1186Z" fill="#F7EE91"/>
<path d="M1.93946 8.14954C1.79855 8.12317 1.79003 7.9245 1.92817 7.88618L1.9997 7.86634C3.71891 7.38944 5.06225 6.04611 5.53915 4.32689L5.55899 4.25537C5.59731 4.11723 5.79598 4.12574 5.82234 4.26666V4.26666C6.14529 5.99301 7.44113 7.37483 9.14321 7.80787L9.45714 7.88774C9.59653 7.9232 9.58858 8.12383 9.44682 8.14815V8.14815C7.592 8.46638 6.13919 9.9192 5.82095 11.774V11.774C5.79663 11.9158 5.596 11.9237 5.56054 11.7843L5.48067 11.4704C5.04764 9.76833 3.66582 8.47249 1.93946 8.14954V8.14954Z" fill="#F7EE91"/>
<path d="M10.9974 3.66481C10.9059 3.64769 10.9004 3.5187 10.9901 3.49382L11.0365 3.48094C12.1527 3.17131 13.0249 2.29914 13.3345 1.18292L13.3474 1.13648C13.3723 1.04679 13.5013 1.05232 13.5184 1.14381V1.14381C13.7281 2.26466 14.5694 3.16182 15.6745 3.44298L15.8783 3.49483C15.9688 3.51786 15.9637 3.64812 15.8716 3.66391V3.66391C14.6674 3.87053 13.7241 4.81378 13.5175 6.01804V6.01804C13.5017 6.11008 13.3714 6.11524 13.3484 6.02474L13.2966 5.82092C13.0154 4.71582 12.1182 3.87449 10.9974 3.66481V3.66481Z" fill="#F7EE91"/>
</svg>
